<mxfile modified="2021-03-13T07:10:44.726Z" host="app.diagrams.net" agent="5.0 (Macintosh; Intel Mac OS X 10_15_6) AppleWebKit/605.1.15 (KHTML, like Gecko) Version/14.0.2 Safari/605.1.15" etag="kclyT4F0craSe5AeP4lW" version="14.4.3" type="github">
  <diagram id="Ht1M8jgEwFfnCIfOTk4-" name="Page-1">
    <mxGraphModel dx="2066" dy="1213" grid="1" gridSize="10" guides="1" tooltips="1" connect="1" arrows="1" fold="1" page="1" pageScale="1" pageWidth="1169" pageHeight="827" math="0" shadow="0">
      <root>
        <mxCell id="0" />
        <mxCell id="1" parent="0" />
        <mxCell id="vFJALKVwbpc0ZcjddJrD-2" value="AWS Cloud" style="points=[[0,0],[0.25,0],[0.5,0],[0.75,0],[1,0],[1,0.25],[1,0.5],[1,0.75],[1,1],[0.75,1],[0.5,1],[0.25,1],[0,1],[0,0.75],[0,0.5],[0,0.25]];outlineConnect=0;gradientColor=none;html=1;whiteSpace=wrap;fontSize=12;fontStyle=0;shape=mxgraph.aws4.group;grIcon=mxgraph.aws4.group_aws_cloud_alt;strokeColor=#232F3E;fillColor=none;verticalAlign=top;align=left;spacingLeft=30;fontColor=#232F3E;dashed=0;labelBackgroundColor=#ffffff;" vertex="1" parent="1">
          <mxGeometry x="180" y="190" width="530" height="550" as="geometry" />
        </mxCell>
        <mxCell id="vFJALKVwbpc0ZcjddJrD-3" value="" style="rounded=1;whiteSpace=wrap;html=1;align=left;" vertex="1" parent="1">
          <mxGeometry x="230" y="290" width="270" height="410" as="geometry" />
        </mxCell>
        <mxCell id="vFJALKVwbpc0ZcjddJrD-18" style="edgeStyle=orthogonalEdgeStyle;rounded=0;orthogonalLoop=1;jettySize=auto;html=1;" edge="1" parent="1" source="vFJALKVwbpc0ZcjddJrD-4" target="vFJALKVwbpc0ZcjddJrD-17">
          <mxGeometry relative="1" as="geometry" />
        </mxCell>
        <mxCell id="vFJALKVwbpc0ZcjddJrD-4" value="AWS Fargate" style="rounded=1;whiteSpace=wrap;html=1;" vertex="1" parent="1">
          <mxGeometry x="380" y="400" width="100" height="90" as="geometry" />
        </mxCell>
        <mxCell id="vFJALKVwbpc0ZcjddJrD-5" value="Amazon Kubernetes Service" style="text;html=1;strokeColor=none;fillColor=none;align=center;verticalAlign=middle;whiteSpace=wrap;rounded=0;" vertex="1" parent="1">
          <mxGeometry x="187.5" y="270" width="190" height="20" as="geometry" />
        </mxCell>
        <mxCell id="vFJALKVwbpc0ZcjddJrD-11" style="edgeStyle=orthogonalEdgeStyle;rounded=0;orthogonalLoop=1;jettySize=auto;html=1;" edge="1" parent="1" source="UEzPUAAOIrF-is8g5C7q-87" target="vFJALKVwbpc0ZcjddJrD-4">
          <mxGeometry relative="1" as="geometry" />
        </mxCell>
        <mxCell id="UEzPUAAOIrF-is8g5C7q-87" value="Amazon&lt;br&gt;DynamoDB" style="outlineConnect=0;fontColor=#232F3E;gradientColor=#4D72F3;gradientDirection=north;fillColor=#3334B9;strokeColor=#ffffff;dashed=0;verticalLabelPosition=bottom;verticalAlign=top;align=center;html=1;fontSize=12;fontStyle=0;aspect=fixed;shape=mxgraph.aws4.resourceIcon;resIcon=mxgraph.aws4.dynamodb;labelBackgroundColor=#ffffff;" parent="1" vertex="1">
          <mxGeometry x="600" y="334" width="78" height="78" as="geometry" />
        </mxCell>
        <mxCell id="vFJALKVwbpc0ZcjddJrD-21" style="edgeStyle=orthogonalEdgeStyle;rounded=0;orthogonalLoop=1;jettySize=auto;html=1;" edge="1" parent="1" source="vFJALKVwbpc0ZcjddJrD-6" target="vFJALKVwbpc0ZcjddJrD-17">
          <mxGeometry relative="1" as="geometry" />
        </mxCell>
        <mxCell id="vFJALKVwbpc0ZcjddJrD-6" value="Classic Load Balancer &amp;nbsp;(Layer 4 &amp;amp; 7)" style="rounded=1;whiteSpace=wrap;html=1;" vertex="1" parent="1">
          <mxGeometry x="250" y="210" width="410" height="40" as="geometry" />
        </mxCell>
        <mxCell id="vFJALKVwbpc0ZcjddJrD-10" style="edgeStyle=orthogonalEdgeStyle;rounded=0;orthogonalLoop=1;jettySize=auto;html=1;exitX=0.5;exitY=0;exitDx=0;exitDy=0;entryX=0.43;entryY=0.989;entryDx=0;entryDy=0;entryPerimeter=0;" edge="1" parent="1" source="vFJALKVwbpc0ZcjddJrD-7" target="vFJALKVwbpc0ZcjddJrD-4">
          <mxGeometry relative="1" as="geometry" />
        </mxCell>
        <mxCell id="vFJALKVwbpc0ZcjddJrD-7" value="Web Application" style="ellipse;whiteSpace=wrap;html=1;aspect=fixed;" vertex="1" parent="1">
          <mxGeometry x="380" y="530" width="85" height="85" as="geometry" />
        </mxCell>
        <mxCell id="vFJALKVwbpc0ZcjddJrD-15" style="edgeStyle=orthogonalEdgeStyle;rounded=0;orthogonalLoop=1;jettySize=auto;html=1;exitX=1;exitY=0.5;exitDx=0;exitDy=0;" edge="1" parent="1" source="vFJALKVwbpc0ZcjddJrD-13" target="vFJALKVwbpc0ZcjddJrD-14">
          <mxGeometry relative="1" as="geometry" />
        </mxCell>
        <mxCell id="vFJALKVwbpc0ZcjddJrD-13" value="User" style="ellipse;whiteSpace=wrap;html=1;aspect=fixed;" vertex="1" parent="1">
          <mxGeometry x="187.5" y="10" width="80" height="80" as="geometry" />
        </mxCell>
        <mxCell id="vFJALKVwbpc0ZcjddJrD-14" value="HTTP" style="rounded=1;whiteSpace=wrap;html=1;" vertex="1" parent="1">
          <mxGeometry x="360" y="20" width="120" height="60" as="geometry" />
        </mxCell>
        <mxCell id="vFJALKVwbpc0ZcjddJrD-16" style="edgeStyle=orthogonalEdgeStyle;rounded=0;orthogonalLoop=1;jettySize=auto;html=1;exitX=0.5;exitY=1;exitDx=0;exitDy=0;entryX=0.407;entryY=-0.067;entryDx=0;entryDy=0;entryPerimeter=0;" edge="1" parent="1" source="vFJALKVwbpc0ZcjddJrD-14" target="vFJALKVwbpc0ZcjddJrD-6">
          <mxGeometry relative="1" as="geometry" />
        </mxCell>
        <mxCell id="vFJALKVwbpc0ZcjddJrD-17" value="Provisioned Server" style="rounded=1;whiteSpace=wrap;html=1;arcSize=0;" vertex="1" parent="1">
          <mxGeometry x="310" y="300" width="140" height="60" as="geometry" />
        </mxCell>
      </root>
    </mxGraphModel>
  </diagram>
</mxfile>
